<?xml version="1.0" standalone="no"?>
<!DOCTYPE svg PUBLIC "-//W3C//DTD SVG 20010904//EN"
 "http://www.w3.org/TR/2001/REC-SVG-20010904/DTD/svg10.dtd">
<svg version="1.0" xmlns="http://www.w3.org/2000/svg"
 width="100.000000pt" height="100.000000pt" viewBox="0 0 100.000000 100.000000"
 preserveAspectRatio="xMidYMid meet">
<metadata>
Created by potrace 1.11, written by Peter Selinger 2001-2013
</metadata>
<g transform="translate(0.000000,100.000000) scale(0.100000,-0.100000)"
fill="#000000" stroke="none">
<path d="M597 859 c-9 -6 -27 -12 -39 -14 -12 -3 -26 -12 -31 -20 -4 -8 -12
-13 -17 -10 -5 3 -11 -4 -15 -15 -3 -11 -11 -20 -16 -20 -5 0 -9 -25 -9 -57
l0 -56 -29 40 c-32 44 -122 104 -129 85 -3 -9 -9 -9 -25 0 -16 8 -22 8 -25 -1
-2 -6 -19 -11 -38 -11 -19 0 -34 -4 -34 -8 0 -5 -10 -14 -22 -20 -22 -10 -22
-11 7 -13 17 -1 32 -1 35 -1 3 -1 18 2 33 6 16 4 26 3 23 -2 -2 -4 22 -14 55
-21 32 -6 59 -16 59 -21 0 -6 8 -10 18 -10 10 0 27 -7 38 -16 18 -14 16 -15
-21 -7 -59 11 -136 5 -155 -12 -9 -8 -21 -15 -27 -15 -6 0 -17 -8 -24 -17 -12
-14 -12 -16 1 -9 8 4 2 -4 -14 -17 -16 -14 -26 -29 -22 -35 3 -6 2 -13 -4 -17
-5 -3 -10 -13 -10 -21 0 -10 5 -9 20 6 12 12 25 18 30 15 4 -3 17 6 28 20 11
13 22 22 26 18 3 -3 15 2 26 12 11 10 20 15 20 11 0 -4 12 1 28 12 29 21 72
37 72 28 0 -3 -21 -19 -47 -36 -27 -16 -41 -30 -33 -30 8 0 1 -9 -16 -19 -18
-11 -35 -25 -39 -32 -5 -8 -4 -10 3 -5 7 4 12 3 12 -3 0 -5 -4 -13 -10 -16 -5
-3 -15 -15 -21 -27 -8 -15 -8 -19 0 -13 11 6 9 -19 -5 -62 -2 -7 4 -13 12 -13
8 0 13 -3 11 -7 -3 -5 -1 -17 3 -28 6 -17 9 -13 15 18 5 27 10 35 16 25 6 -8
9 2 9 30 0 26 4 41 10 37 6 -3 13 2 17 12 4 10 20 35 37 56 30 38 31 38 37 15
4 -17 12 -23 32 -23 35 1 42 -21 42 -140 0 -110 -8 -152 -39 -198 -27 -39 -21
-47 33 -47 33 0 44 9 31 25 -6 7 -4 29 6 61 16 53 17 163 2 229 -6 22 -11 49
-14 59 -2 10 -8 34 -15 53 -6 19 -8 37 -5 40 3 4 9 -8 12 -25 3 -17 12 -33 19
-36 7 -2 16 -18 20 -35 4 -17 11 -31 16 -31 5 0 9 -14 9 -31 0 -16 4 -28 9
-24 6 3 6 -7 0 -27 -12 -42 -11 -49 2 -46 6 2 13 -5 14 -15 5 -30 14 -31 21
-3 3 14 10 26 15 26 5 0 9 16 9 35 0 19 5 35 10 35 6 0 4 12 -5 29 -11 23 -12
30 -2 34 8 2 0 17 -21 41 -33 38 -45 69 -17 46 8 -7 15 -10 15 -7 0 3 16 -10
35 -30 19 -20 35 -42 35 -49 0 -7 6 -11 13 -8 8 3 18 -5 24 -18 10 -21 11 -19
11 17 0 26 -8 48 -21 63 -13 14 -16 22 -8 22 11 0 11 3 1 15 -7 8 -19 15 -27
15 -8 0 -11 4 -8 10 3 5 -12 13 -35 16 -26 4 -37 10 -29 15 8 5 -2 10 -27 14
-61 10 -62 12 -12 20 26 4 55 5 63 1 10 -4 14 -2 9 6 -5 7 1 9 19 4 16 -4 27
-2 30 7 3 9 7 9 20 -1 8 -7 33 -15 54 -18 l38 -4 -24 20 c-13 11 -19 20 -15
20 20 1 -23 20 -44 20 -15 0 -21 4 -16 11 5 9 -4 10 -31 5 -25 -5 -35 -4 -30
3 9 16 -17 13 -42 -4 -15 -10 -22 -12 -25 -4 -2 7 -20 -2 -43 -22 l-39 -34 28
37 c15 20 33 39 39 42 9 3 9 5 0 5 -20 1 -15 19 7 26 11 4 18 10 15 15 -3 4 7
11 20 14 14 4 23 11 20 16 -3 6 1 10 9 10 8 0 18 5 21 10 8 13 -35 12 -58 -1z"/>
</g>
</svg>
